<svg xmlns="http://www.w3.org/2000/svg" xmlns:xlink="http://www.w3.org/1999/xlink" width="42" height="43" version="1.1" viewBox="0 0 42 43"><title>Logo</title><desc>Created with Sketch.</desc><defs><circle id="path-1" cx="20" cy="20" r="20"/><filter id="filter-2" width="115%" height="117.5%" x="-7.5%" y="-5%" filterUnits="objectBoundingBox"><feMorphology in="SourceAlpha" operator="erode" radius="1" result="shadowSpreadOuter1"/><feOffset dx="0" dy="2" in="shadowSpreadOuter1" result="shadowOffsetOuter1"/><feGaussianBlur in="shadowOffsetOuter1" result="shadowBlurOuter1" stdDeviation="1"/><feColorMatrix in="shadowBlurOuter1" result="shadowMatrixOuter1" type="matrix" values="0 0 0 0 0 0 0 0 0 0 0 0 0 0 0 0 0 0 0.25 0"/><feOffset dx="0" dy="0" in="SourceAlpha" result="shadowOffsetOuter2"/><feGaussianBlur in="shadowOffsetOuter2" result="shadowBlurOuter2" stdDeviation=".5"/><feColorMatrix in="shadowBlurOuter2" result="shadowMatrixOuter2" type="matrix" values="0 0 0 0 0 0 0 0 0 0 0 0 0 0 0 0 0 0 0.31 0"/><feMerge><feMergeNode in="shadowMatrixOuter1"/><feMergeNode in="shadowMatrixOuter2"/></feMerge></filter></defs><g id="Landing" fill="none" fill-rule="evenodd" stroke="none" stroke-width="1"><g id="Landing-page" transform="translate(-31.000000, -11.000000)"><g id="topbar"><g id="left" transform="translate(32.000000, 12.000000)"><g id="Logo"><g id="Oval"><use fill="#000" fill-opacity="1" filter="url(#filter-2)" xlink:href="#path-1"/><use fill="#FFF" fill-rule="evenodd" xlink:href="#path-1"/></g><polygon id="Path" fill="#3A32D0" points="19.167 20.417 15.065 27.907 12.55 32.5 12.515 32.5 10.992 29.72 10 27.907 10.036 27.907 14.137 20.417 10.036 12.926 10 12.926 10.992 11.114 12.515 8.333 12.55 8.333 15.065 12.926"/><polygon id="Path" fill="#5850EC" points="33.333 20.417 26.43 32.5 12.624 32.5 11.035 29.72 10 27.907 23.806 27.907 28.086 20.417 23.806 12.926 10 12.926 11.035 11.114 12.624 8.333 26.43 8.333"/></g></g></g></g></g></svg>